<svg width="307" height="159" viewBox="0 0 307 159" fill="none" xmlns="http://www.w3.org/2000/svg">
<g clip-path="url(#clip0_76_14)">
<path d="M307.027 0H258.415L169.505 64.6035V0H137.523V92.7476H0V124.73H120.252L73.5586 158.95H122.171L169.505 124.41V100.743L207.883 72.9188L211.081 75.7972L262.572 124.73H307.027L231.55 55.3287L307.027 0Z" fill="#202020"/>
<path d="M62.045 50.8516L137.523 0H88.9098L0 59.4868V92.7476L62.045 50.8516Z" fill="#202020"/>
<path d="M178.449 123.301C176.159 123.301 174.699 121.871 174.699 119.591C174.699 117.301 176.159 115.871 178.449 115.871C180.739 115.871 182.179 117.301 182.179 119.591C182.179 121.871 180.739 123.301 178.449 123.301ZM175.479 119.591C175.479 121.481 176.619 122.651 178.449 122.651C180.269 122.651 181.409 121.481 181.409 119.591C181.409 117.701 180.269 116.521 178.449 116.521C176.619 116.521 175.479 117.701 175.479 119.591ZM176.399 119.591C176.399 118.281 177.149 117.341 178.449 117.341C179.609 117.341 180.309 118.071 180.409 118.971H179.569C179.529 118.711 179.319 118.111 178.479 118.111C177.549 118.111 177.269 118.791 177.269 119.591C177.269 120.381 177.549 121.061 178.479 121.061C179.319 121.061 179.529 120.491 179.569 120.191H180.409C180.349 121.101 179.669 121.831 178.529 121.831C177.189 121.831 176.399 120.911 176.399 119.591ZM185.026 123.161C185.026 121.861 185.816 120.961 187.136 120.141C188.306 119.431 188.896 119.141 188.896 118.221C188.896 117.651 188.666 117.041 187.726 117.041C186.646 117.041 186.306 117.741 186.306 118.691H185.206C185.206 117.221 186.006 116.111 187.756 116.111C189.006 116.111 190.016 116.861 190.016 118.181C190.016 119.521 188.926 120.211 187.936 120.821C187.256 121.221 186.616 121.601 186.416 122.211V122.231H189.936V123.161H185.026ZM193.619 123.301C191.689 123.301 190.869 121.691 190.869 119.711C190.869 117.731 191.689 116.111 193.619 116.111C195.549 116.111 196.359 117.731 196.359 119.711C196.359 121.691 195.549 123.301 193.619 123.301ZM191.999 119.711C191.999 121.131 192.369 122.371 193.619 122.371C194.859 122.371 195.229 121.131 195.229 119.711C195.229 118.291 194.859 117.041 193.619 117.041C192.369 117.041 191.999 118.291 191.999 119.711ZM197.067 123.161C197.067 121.861 197.857 120.961 199.177 120.141C200.347 119.431 200.937 119.141 200.937 118.221C200.937 117.651 200.707 117.041 199.767 117.041C198.687 117.041 198.347 117.741 198.347 118.691H197.247C197.247 117.221 198.047 116.111 199.797 116.111C201.047 116.111 202.057 116.861 202.057 118.181C202.057 119.521 200.967 120.211 199.977 120.821C199.297 121.221 198.657 121.601 198.457 122.211V122.231H201.977V123.161H197.067ZM205.41 123.301C203.76 123.301 202.86 122.301 202.82 121.141H203.92C203.99 121.771 204.35 122.371 205.35 122.371C206.23 122.371 206.81 121.831 206.81 120.801C206.81 119.831 206.28 119.391 205.42 119.391C204.86 119.391 204.35 119.581 204.02 120.011H202.91L203.65 116.251H207.58V117.181H204.48L204.1 119.091V119.111C204.46 118.741 204.97 118.511 205.71 118.511C207.02 118.511 207.93 119.481 207.93 120.801C207.93 122.331 206.83 123.301 205.41 123.301Z" fill="#202020"/>
</g>
<defs>
<clipPath id="clip0_76_14">
<rect width="307" height="159" fill="white"/>
</clipPath>
</defs>
</svg>
